/* XPM */
static char * us_xpm[] = {
"20 20 98 2",
"  	c None",
". 	c #2F5084",
"+ 	c #022A69",
"@ 	c #2C4E83",
"# 	c #012969",
"$ 	c #25477E",
"% 	c #022A6A",
"& 	c #1C4079",
"* 	c #032B6A",
"= 	c #13447E",
"- 	c #B7082F",
"; 	c #BE062D",
"> 	c #496594",
", 	c #0B326E",
"' 	c #476492",
") 	c #052C6B",
"! 	c #38578A",
"~ 	c #325286",
"{ 	c #042B6A",
"] 	c #274E84",
"^ 	c #D9899D",
"/ 	c #E28D9F",
"( 	c #5F79A0",
"_ 	c #0F3470",
": 	c #5C769E",
"< 	c #08306E",
"[ 	c #526D99",
"} 	c #062D6C",
"| 	c #425F8F",
"1 	c #0C3270",
"2 	c #345588",
"3 	c #F4F0F3",
"4 	c #FDF7F9",
"5 	c #335387",
"6 	c #315285",
"7 	c #002768",
"8 	c #24477E",
"9 	c #1F427A",
"0 	c #002868",
"a 	c #16457E",
"b 	c #C02C4E",
"c 	c #C82C4D",
"d 	c #B0BCD0",
"e 	c #103672",
"f 	c #AAB7CC",
"g 	c #0B316F",
"h 	c #8A9CBA",
"i 	c #09306E",
"j 	c #7388AC",
"k 	c #0F3471",
"l 	c #6C8BAF",
"m 	c #CC5873",
"n 	c #D45973",
"o 	c #284A80",
"p 	c #27497F",
"q 	c #042C6B",
"r 	c #23467D",
"s 	c #032A6A",
"t 	c #1E417A",
"u 	c #F9FFFF",
"v 	c #FFFFFF",
"w 	c #94A6C0",
"x 	c #0A316F",
"y 	c #8FA1BD",
"z 	c #6C83A8",
"A 	c #5E78A0",
"B 	c #052B6B",
"C 	c #5A7FA7",
"D 	c #BB153B",
"E 	c #C21439",
"F 	c #3A598B",
"G 	c #385789",
"H 	c #1B477F",
"I 	c #CA4F6B",
"J 	c #D2506B",
"K 	c #3F5D8D",
"L 	c #092F6D",
"M 	c #3D5B8C",
"N 	c #2B4C81",
"O 	c #F7FDFF",
"P 	c #5B759E",
"Q 	c #082F6D",
"R 	c #57739C",
"S 	c #042C6A",
"T 	c #4A6794",
"U 	c #3B5A8B",
"V 	c #062E6C",
"W 	c #325B8D",
"X 	c #C74563",
"Y 	c #CF4662",
"Z 	c #64729B",
"` 	c #405486",
" .	c #62719A",
"..	c #3E5385",
"+.	c #596A95",
"@.	c #566793",
"#.	c #4F6996",
"$.	c #C94664",
". + @ # $ % & * = - ; ; ; ; ; ; ; ; ; ; ",
"> , ' ) ! * ~ { ] ^ / / / / / / / / / / ",
"( _ : < [ } | 1 2 3 4 4 4 4 4 4 4 4 4 4 ",
"5 # 6 7 8 + 9 0 a b c c c c c c c c c c ",
"d e f g h i j k l m n n n n n n n n n n ",
"o i p q r s t ) _ u v v v v v v v v v v ",
"w x y q z } A B C D E E E E E E E E E E ",
"F { G * . * $ ) H I J J J J J J J J J J ",
"K L M * . s N + t O v v v v v v v v v v ",
"P Q R S T * U V W X Y Y Y Y Y Y Y Y Y Y ",
"Z `  ...+...@...#.$.Y Y Y Y Y Y Y Y Y Y ",
"v v v v v v v v v v v v v v v v v v v v ",
"J J J J J J J J J J J J J J J J J J J J ",
"E E E E E E E E E E E E E E E E E E E E ",
"v v v v v v v v v v v v v v v v v v v v ",
"n n n n n n n n n n n n n n n n n n n n ",
"c c c c c c c c c c c c c c c c c c c c ",
"4 4 4 4 4 4 4 4 4 4 4 4 4 4 4 4 4 4 4 4 ",
"/ / / / / / / / / / / / / / / / / / / / ",
"; ; ; ; ; ; ; ; ; ; ; ; ; ; ; ; ; ; ; ; "};
